<svg width="31" height="25" viewBox="0 0 31 25" fill="none" xmlns="http://www.w3.org/2000/svg">
<path d="M22.4375 0C19.755 0 17.1804 1.08 15.5 2.78667C13.8196 1.08 11.245 0 8.56251 0C3.81418 0 0.0833435 3.22667 0.0833435 7.33333C0.0833435 12.3733 5.32501 16.48 13.2646 22.72L15.5 24.4667L17.7354 22.7067C25.675 16.48 30.9167 12.3733 30.9167 7.33333C30.9167 3.22667 27.1858 0 22.4375 0ZM15.6542 20.7333L15.5 20.8667L15.3458 20.7333C8.00751 14.9867 3.16668 11.1867 3.16668 7.33333C3.16668 4.66667 5.47918 2.66667 8.56251 2.66667C10.9367 2.66667 13.2492 3.98667 14.0663 5.81333H16.9492C17.7508 3.98667 20.0633 2.66667 22.4375 2.66667C25.5208 2.66667 27.8333 4.66667 27.8333 7.33333C27.8333 11.1867 22.9925 14.9867 15.6542 20.7333Z" fill="black"/>
</svg>
